<svg xmlns="http://www.w3.org/2000/svg" viewBox="0 0 20 21">
  <path d="M18.78 15.51C16.31 15.51 12.21 14.18 10.1 10.08C7.76998 5.57 9.59998 1.6 10.63 0.00999832C5.26998 0.199998 0.97998 4.59 0.97998 10C0.97998 10.14 0.99998 10.28 0.99998 10.42C1.60998 10.16 2.27998 10 2.97998 10C2.97998 6.91 4.70998 4.23 7.27998 2.9C6.77998 5.09 6.73998 7.94 8.31998 11C9.88998 14.04 12.5 15.95 15.12 16.86C13.89 17.6 12.47 18.01 10.99 18.01C10.49 18.01 9.98998 17.96 9.50998 17.87C9.13998 18.57 8.56998 19.14 7.86998 19.51C8.84998 19.83 9.89998 20.01 10.98 20.01C14.48 20.01 17.56 18.21 19.35 15.49C19.18 15.5 18.98 15.51 18.78 15.51Z"/>
  <path d="M6 14H5.82C5.4 12.84 4.3 12 3 12C1.34 12 0 13.34 0 15C0 16.66 1.34 18 3 18C3.62 18 5.49 18 6 18C7.1 18 8 17.1 8 16C8 14.9 7.1 14 6 14Z"/>
</svg>